<?xml version="1.0" encoding="UTF-8"?>
<!DOCTYPE svg PUBLIC "-//W3C//DTD SVG 1.1//EN" "http://www.w3.org/Graphics/SVG/1.1/DTD/svg11.dtd">
<!-- Creator: CorelDRAW X7 -->
<svg xmlns="http://www.w3.org/2000/svg" xml:space="preserve" width="0.414535in" height="0.709142in" version="1.1" style="shape-rendering:geometricPrecision; text-rendering:geometricPrecision; image-rendering:optimizeQuality; fill-rule:evenodd; clip-rule:evenodd"
viewBox="0 0 38 65"
 xmlns:xlink="http://www.w3.org/1999/xlink">
 <defs>
  <style type="text/css">
   <![CDATA[
    .fil0 {fill:#004AAD}
   ]]>
  </style>
 </defs>
 <g id="Layer_x0020_1">
  <metadata id="CorelCorpID_0Corel-Layer"/>
  <g id="_1914831719584">
   <path class="fil0" d="M21 0l-21 0 0 65 12 0c0,0 1,0 1,0l0 -12 -6 0c0,-2 4,-4 5,-5l18 -13c1,-1 8,-6 8,-6l0 -29 -8 0c-1,0 -2,0 -3,0l-6 0zm-8 31c0,0 2,-1 3,-2 1,0 1,-1 2,-1l6 -5c1,0 1,-1 1,-2 0,-2 1,-6 0,-9l-11 0c-1,0 -1,0 -1,1l0 18z"/>
   <path class="fil0" d="M32 60c0,6 -1,5 5,5 2,0 1,-2 1,-5 0,-1 -2,0 -5,0 0,0 -1,0 -1,0z"/>
   <path class="fil0" d="M32 53c0,6 -1,5 5,5 2,0 1,-2 1,-5 0,-1 -2,0 -5,0 0,0 -1,0 -1,0z"/>
   <polygon class="fil0" points="25,65 31,65 31,60 25,60 "/>
   <path class="fil0" d="M25 58l5 0c1,0 1,0 1,0l0 -5 -6 0 0 5z"/>
  </g>
 </g>
</svg>
