<svg width="204" height="150" viewBox="0 0 204 150" fill="none" xmlns="http://www.w3.org/2000/svg">
<path d="M8.71816 69.5674C8.49149 68.6337 8.64425 67.6482 9.14297 66.827C9.64169 66.0058 10.4457 65.4158 11.3787 65.1864L33.396 59.8037C33.8638 59.6755 34.3526 59.6425 34.8334 59.7064C35.3142 59.7704 35.7773 59.9301 36.1953 60.176C36.6134 60.422 36.9779 60.7492 37.2673 61.1384C37.5567 61.5276 37.7652 61.9709 37.8805 62.442C37.9957 62.9132 38.0154 63.4026 37.9382 63.8815C37.8611 64.3604 37.6888 64.8189 37.4315 65.23C37.1742 65.6412 36.837 65.9966 36.44 66.2752C36.043 66.5539 35.5942 66.7502 35.1201 66.8524L13.1064 72.2352C12.8239 72.3059 12.5337 72.3412 12.2425 72.3404C11.4294 72.3398 10.6399 72.0661 10.0009 71.5633C9.36178 71.0605 8.91007 70.3576 8.71816 69.5674ZM35.1419 114.636L14.8159 119.609C13.9556 119.821 13.2025 120.34 12.6985 121.069C12.1945 121.797 11.9744 122.685 12.0798 123.565C12.1851 124.445 12.6086 125.256 13.2703 125.845C13.9321 126.434 14.7865 126.76 15.6725 126.763C15.9649 126.764 16.2563 126.728 16.54 126.658L36.8659 121.685C37.3401 121.583 37.7889 121.387 38.1859 121.108C38.5829 120.829 38.92 120.474 39.1773 120.063C39.4347 119.652 39.607 119.193 39.6841 118.714C39.7612 118.235 39.7416 117.746 39.6263 117.275C39.5111 116.804 39.3026 116.36 39.0132 115.971C38.7237 115.582 38.3592 115.255 37.9412 115.009C37.5231 114.763 37.06 114.603 36.5792 114.539C36.0984 114.475 35.6097 114.508 35.1419 114.636ZM86.0946 141.361L80.0331 142.846C79.1728 143.058 78.4197 143.577 77.9157 144.306C77.4117 145.034 77.1916 145.922 77.297 146.802C77.4023 147.682 77.8258 148.492 78.4875 149.081C79.1493 149.671 80.0037 149.997 80.8897 150C81.1809 150.001 81.4711 149.965 81.7536 149.895L87.8151 148.414C88.2799 148.303 88.7182 148.101 89.1048 147.819C89.4913 147.538 89.8186 147.184 90.0677 146.776C90.3168 146.368 90.483 145.915 90.5565 145.442C90.6301 144.97 90.6096 144.488 90.4963 144.024C90.3831 143.559 90.1792 143.122 89.8964 142.737C89.6136 142.351 89.2575 142.026 88.8485 141.778C88.4395 141.531 87.9857 141.367 87.5131 141.295C87.0405 141.224 86.5585 141.246 86.0946 141.361ZM114.388 134.447L97.4009 138.596C96.5406 138.807 95.7875 139.327 95.2835 140.055C94.7795 140.784 94.5594 141.672 94.6647 142.552C94.7701 143.431 95.1935 144.242 95.8553 144.831C96.5171 145.42 97.3715 145.747 98.2575 145.75C98.5487 145.75 98.8388 145.715 99.1214 145.644L116.101 141.496C116.575 141.393 117.024 141.197 117.421 140.919C117.818 140.64 118.155 140.285 118.412 139.873C118.67 139.462 118.842 139.004 118.919 138.525C118.996 138.046 118.976 137.557 118.861 137.085C118.746 136.614 118.537 136.171 118.248 135.782C117.959 135.393 117.594 135.065 117.176 134.819C116.758 134.573 116.295 134.414 115.814 134.35C115.333 134.286 114.845 134.319 114.377 134.447H114.388ZM28.4924 26.3748C28.7847 26.374 29.0759 26.3387 29.3599 26.2695L92.7586 10.7674C93.2327 10.6651 93.6816 10.4688 94.0786 10.1902C94.4756 9.91153 94.8127 9.55613 95.07 9.14499C95.3273 8.73385 95.4997 8.2753 95.5768 7.79644C95.6539 7.31758 95.6343 6.82812 95.519 6.35697C95.4038 5.88583 95.1953 5.44256 94.9058 5.05336C94.6164 4.66415 94.2519 4.33691 93.8338 4.09096C93.4158 3.84501 92.9527 3.68535 92.4719 3.62139C91.9911 3.55744 91.5023 3.5905 91.0345 3.71862L27.6358 19.2171C26.7721 19.4259 26.015 19.9443 25.5079 20.6741C25.0009 21.4038 24.7792 22.2942 24.8848 23.1764C24.9904 24.0587 25.4159 24.8717 26.0808 25.4611C26.7457 26.0506 27.6038 26.3757 28.4924 26.3748ZM103.208 8.11773C103.501 8.11855 103.792 8.08319 104.076 8.01248L107.488 7.17766C107.962 7.07539 108.411 6.87913 108.808 6.60048C109.205 6.32182 109.542 5.96643 109.799 5.55529C110.056 5.14414 110.229 4.6856 110.306 4.20673C110.383 3.72787 110.363 3.23841 110.248 2.76727C110.133 2.29613 109.924 1.85286 109.635 1.46366C109.345 1.07445 108.981 0.747209 108.563 0.501259C108.145 0.255309 107.682 0.0956396 107.201 0.0316878C106.72 -0.0322639 106.231 0.000799576 105.764 0.128921L102.352 0.963734C101.491 1.17554 100.738 1.69471 100.234 2.42338C99.7303 3.15206 99.5102 4.03992 99.6155 4.91964C99.7209 5.79935 100.144 6.61016 100.806 7.19925C101.468 7.78834 102.322 8.11502 103.208 8.11773ZM195.209 103.036L72.7702 132.973C69.9656 133.66 67.0032 133.204 64.5344 131.707C62.0657 130.209 60.2928 127.793 59.6056 124.988L54.7237 105.025C54.4951 104.09 54.6473 103.102 55.147 102.279C55.6466 101.456 56.4527 100.866 57.3879 100.637C58.3231 100.408 59.3108 100.561 60.1338 101.06C60.9567 101.56 61.5475 102.366 61.7761 103.301L66.658 123.264C66.7711 123.727 66.9744 124.163 67.2562 124.548C67.5379 124.933 67.8927 125.258 68.3002 125.505C68.7077 125.753 69.16 125.917 69.6311 125.99C70.1023 126.062 70.5831 126.042 71.0462 125.928L193.484 95.9947C193.948 95.8816 194.384 95.6783 194.768 95.3965C195.153 95.1147 195.478 94.76 195.726 94.3525C195.973 93.945 196.138 93.4927 196.21 93.0216C196.283 92.5504 196.262 92.0696 196.149 91.6065L180.273 26.6688L132.859 73.8757C130.517 76.2128 127.581 77.8639 124.367 78.6496C121.154 79.4354 117.786 79.3259 114.631 78.3329L50.7856 58.3155L57.896 87.407L72.4944 83.8391C72.9622 83.711 73.4509 83.6779 73.9317 83.7419C74.4125 83.8058 74.8756 83.9655 75.2937 84.2114C75.7117 84.4574 76.0762 84.7846 76.3657 85.1738C76.6551 85.563 76.8636 86.0063 76.9789 86.4774C77.0941 86.9486 77.1137 87.438 77.0366 87.9169C76.9595 88.3958 76.7872 88.8543 76.5299 89.2654C76.2725 89.6766 75.9354 90.032 75.5384 90.3106C75.1414 90.5893 74.6926 90.7856 74.2185 90.8878L56.0921 95.3377L4.48238 107.951C4.1999 108.021 3.90973 108.057 3.61853 108.056C2.73254 108.053 1.87813 107.727 1.21634 107.137C0.554551 106.548 0.131084 105.738 0.0257508 104.858C-0.0795828 103.978 0.140491 103.09 0.644497 102.362C1.1485 101.633 1.90163 101.114 2.76194 100.902L50.8364 89.1456L40.0528 45.0383C39.3674 42.2342 39.8236 39.2727 41.3209 36.8048C42.8183 34.3369 45.2343 32.5645 48.0379 31.8773L170.476 1.94011C173.281 1.25367 176.243 1.70928 178.712 3.20673C181.181 4.70418 182.954 7.12086 183.641 9.92529L203.201 89.8933C203.881 92.6958 203.421 95.6535 201.923 98.1175C200.424 100.581 198.01 102.35 195.209 103.036ZM178.262 18.4331L176.603 11.653C176.49 11.1899 176.287 10.7536 176.005 10.3691C175.723 9.98459 175.368 9.65935 174.961 9.41195C174.553 9.16455 174.101 8.99986 173.63 8.92726C173.159 8.85466 172.678 8.87559 172.215 8.98885L49.7765 38.926C49.3134 39.0392 48.8772 39.2425 48.4927 39.5243C48.1081 39.806 47.7829 40.1608 47.5355 40.5683C47.2881 40.9758 47.1234 41.428 47.0508 41.8992C46.9782 42.3703 46.9991 42.8512 47.1124 43.3143L48.7711 50.0908L116.801 71.404C118.695 72.0012 120.716 72.0676 122.645 71.5959C124.574 71.1243 126.337 70.1327 127.741 68.7289L178.262 18.4331Z" fill="#333333"/>
</svg>
