<svg width="33" height="32" viewBox="0 0 33 32" fill="none" xmlns="http://www.w3.org/2000/svg">
<path d="M2.38733 15H30.3873" stroke="#5C8DF0" stroke-width="3" stroke-linecap="round" stroke-linejoin="round"/>
<path d="M28.3873 22V26C28.3873 26.2652 28.282 26.5196 28.0944 26.7071C27.9069 26.8946 27.6525 27 27.3873 27H24.3873C24.1221 27 23.8678 26.8946 23.6802 26.7071C23.4927 26.5196 23.3873 26.2652 23.3873 26V22" stroke="#5C8DF0" stroke-width="3" stroke-linecap="round" stroke-linejoin="round"/>
<path d="M9.38733 22V26C9.38733 26.2652 9.28197 26.5196 9.09444 26.7071C8.9069 26.8946 8.65255 27 8.38733 27H5.38733C5.12211 27 4.86776 26.8946 4.68022 26.7071C4.49269 26.5196 4.38733 26.2652 4.38733 26V22" stroke="#5C8DF0" stroke-width="3" stroke-linecap="round" stroke-linejoin="round"/>
<path d="M28.3873 15L24.6513 6.59386C24.5727 6.4171 24.4446 6.26691 24.2824 6.16151C24.1202 6.0561 23.9309 6 23.7375 6H9.0372C8.84377 6 8.65448 6.0561 8.49229 6.16151C8.3301 6.26691 8.20195 6.4171 8.12339 6.59386L4.38733 15V22H28.3873V15Z" stroke="#5C8DF0" stroke-width="3" stroke-linecap="round" stroke-linejoin="round"/>
</svg>
