<svg width="23" height="22" viewBox="0 0 23 22" fill="none" xmlns="http://www.w3.org/2000/svg">
<path d="M18.3475 3.4375H4.50429C4.12202 3.4375 3.81213 3.7453 3.81213 4.125V17.875C3.81213 18.2547 4.12202 18.5625 4.50429 18.5625H18.3475C18.7298 18.5625 19.0397 18.2547 19.0397 17.875V4.125C19.0397 3.7453 18.7298 3.4375 18.3475 3.4375Z" stroke="#828282" stroke-width="3" stroke-linecap="round" stroke-linejoin="round"/>
<path d="M15.5789 1.71875V3.4375" stroke="#828282" stroke-width="3" stroke-linecap="round" stroke-linejoin="round"/>
<path d="M7.27289 1.71875V3.4375" stroke="#828282" stroke-width="3" stroke-linecap="round" stroke-linejoin="round"/>
<path d="M3.81213 7.5625H19.0397" stroke="#828282" stroke-width="3" stroke-linecap="round" stroke-linejoin="round"/>
<path d="M7.96509 10.9997H10.3876L9.00333 12.7184C9.23094 12.7184 9.45505 12.7742 9.6558 12.8808C9.85655 12.9873 10.0277 13.1414 10.1542 13.3294C10.2807 13.5173 10.3586 13.7334 10.381 13.9584C10.4033 14.1833 10.3695 14.4103 10.2824 14.6192C10.1954 14.8281 10.0578 15.0125 9.88194 15.156C9.70604 15.2995 9.49724 15.3977 9.27402 15.4419C9.05079 15.4861 8.82004 15.475 8.60219 15.4095C8.38434 15.3439 8.18611 15.2261 8.02506 15.0663" stroke="#828282" stroke-width="3" stroke-linecap="round" stroke-linejoin="round"/>
<path d="M13.1562 12.031L14.5406 10.9998V15.4685" stroke="#828282" stroke-width="3" stroke-linecap="round" stroke-linejoin="round"/>
</svg>
