<svg width="23" height="22" viewBox="0 0 23 22" fill="none" xmlns="http://www.w3.org/2000/svg">
<path d="M15.4316 4.8125H19.5846" stroke="#828282" stroke-width="3" stroke-linecap="round" stroke-linejoin="round"/>
<path d="M17.5081 2.75V6.875" stroke="#828282" stroke-width="3" stroke-linecap="round" stroke-linejoin="round"/>
<path d="M2.88527 18.5617C3.73624 17.0987 4.95986 15.8838 6.43318 15.0392C7.9065 14.1946 9.57766 13.75 11.2788 13.75C12.9799 13.75 14.651 14.1947 16.1243 15.0393C17.5976 15.884 18.8212 17.0988 19.6721 18.5619" stroke="#828282" stroke-width="3" stroke-linecap="round" stroke-linejoin="round"/>
<path d="M16.4743 10.1563C16.1042 11.149 15.4534 12.0144 14.6001 12.6485C13.7468 13.2827 12.7273 13.6587 11.6641 13.7313C10.6009 13.8039 9.53919 13.5701 8.60654 13.0579C7.67389 12.5457 6.90996 11.7769 6.40652 10.8439C5.90307 9.91097 5.68154 8.85345 5.76852 7.79845C5.8555 6.74344 6.24731 5.73582 6.89686 4.89662C7.54641 4.05743 8.42608 3.42236 9.4302 3.06771C10.4343 2.71306 11.5202 2.65391 12.5573 2.89737" stroke="#828282" stroke-width="3" stroke-linecap="round" stroke-linejoin="round"/>
</svg>
