<svg width="33" height="32" viewBox="0 0 33 32" fill="none" xmlns="http://www.w3.org/2000/svg">
<path d="M27.0891 27V14.4424C27.0891 14.303 27.06 14.1652 27.0036 14.0378C26.9473 13.9104 26.8649 13.7962 26.7618 13.7024L16.7611 4.61054C16.577 4.44318 16.3372 4.35046 16.0884 4.35046C15.8396 4.35047 15.5998 4.44322 15.4157 4.61058L5.41637 13.7024C5.31329 13.7962 5.23094 13.9104 5.17458 14.0378C5.11822 14.1652 5.08911 14.303 5.08911 14.4423V27" stroke="#5C8DF0" stroke-width="3" stroke-linecap="round" stroke-linejoin="round"/>
<path d="M2.08911 27H30.0891" stroke="#5C8DF0" stroke-width="3" stroke-linecap="round" stroke-linejoin="round"/>
<path d="M19.0884 26.9989V19.9989C19.0884 19.7337 18.983 19.4793 18.7955 19.2918C18.6079 19.1043 18.3536 18.9989 18.0884 18.9989H14.0884C13.8232 18.9989 13.5688 19.1043 13.3813 19.2918C13.1937 19.4793 13.0884 19.7337 13.0884 19.9989V26.9989" stroke="#5C8DF0" stroke-width="3" stroke-linecap="round" stroke-linejoin="round"/>
</svg>
