<svg width="19" height="19" viewBox="0 0 19 19" fill="none" xmlns="http://www.w3.org/2000/svg">
<path d="M18.5064 8.83189V17.5C18.5063 17.7719 18.4326 18.0386 18.2932 18.272C18.1539 18.5054 17.954 18.6968 17.7148 18.8259C17.4981 18.9432 17.2549 19.0031 17.0085 18.9999H12.5032C12.3043 18.9999 12.1135 18.9209 11.9728 18.7803C11.8322 18.6396 11.7532 18.4488 11.7532 18.2499V13.7493C11.7532 13.5504 11.6741 13.3596 11.5335 13.2189C11.3928 13.0783 11.2021 12.9993 11.0032 12.9993H8.00317C7.80425 12.9993 7.61349 13.0783 7.47284 13.2189C7.33218 13.3596 7.25317 13.5504 7.25317 13.7493V18.2499C7.25317 18.4488 7.17415 18.6396 7.0335 18.7803C6.89284 18.9209 6.70208 18.9999 6.50317 18.9999H2.00664C1.79398 19.0005 1.58367 18.9556 1.38979 18.8682C1.19591 18.7808 1.02295 18.653 0.882479 18.4934C0.635899 18.2082 0.502152 17.8427 0.506448 17.4657V8.8318C0.506611 8.62281 0.550359 8.41615 0.634896 8.22503C0.719433 8.0339 0.842902 7.86251 0.997417 7.7218L8.49676 0.903078C8.77223 0.650753 9.13223 0.510777 9.5058 0.510742C9.87937 0.510707 10.2394 0.650617 10.5149 0.90289L18.0156 7.72189C18.17 7.86263 18.2935 8.03403 18.378 8.22515C18.4625 8.41627 18.5063 8.62292 18.5064 8.83189Z" fill="#00349A"/>
</svg>
