<svg width="33" height="32" viewBox="0 0 33 32" fill="none" xmlns="http://www.w3.org/2000/svg">
<path d="M6.68201 11.8284C5.93186 11.0783 5.51044 10.0609 5.51044 9C5.51044 7.93913 5.93186 6.92172 6.68201 6.17157C7.43216 5.42143 8.44957 5 9.51044 5C10.5713 5 11.5887 5.42143 12.3389 6.17157L26.3389 20.1716C27.089 20.9217 27.5104 21.9391 27.5104 23C27.5104 24.0609 27.089 25.0783 26.3389 25.8284C25.5887 26.5786 24.5713 27 23.5104 27C22.4496 27 21.4322 26.5786 20.682 25.8284L6.68201 11.8284Z" stroke="#5C8DF0" stroke-width="3" stroke-linecap="round" stroke-linejoin="round"/>
<path d="M20.682 6.17157C21.4322 5.42143 22.4496 5 23.5104 5C24.0357 5 24.5559 5.10346 25.0412 5.30448C25.5265 5.5055 25.9674 5.80014 26.3389 6.17157C26.7103 6.54301 27.0049 6.98396 27.206 7.46927C27.407 7.95457 27.5104 8.47471 27.5104 9C27.5104 9.52529 27.407 10.0454 27.206 10.5307C27.0049 11.016 26.7103 11.457 26.3389 11.8284L12.3389 25.8284C11.9674 26.1999 11.5265 26.4945 11.0412 26.6955C10.5559 26.8965 10.0357 27 9.51044 27C8.98515 27 8.46501 26.8965 7.9797 26.6955C7.4944 26.4945 7.05344 26.1999 6.68201 25.8284C5.93186 25.0783 5.51044 24.0609 5.51044 23C5.51044 21.9391 5.93186 20.9217 6.68201 20.1716L20.682 6.17157Z" stroke="#5C8DF0" stroke-width="3" stroke-linecap="round" stroke-linejoin="round"/>
</svg>
