<svg width="24" height="22" viewBox="0 0 24 22" fill="none" xmlns="http://www.w3.org/2000/svg">
<path d="M12.0672 11.6875C13.5963 11.6875 14.8359 10.4563 14.8359 8.9375C14.8359 7.41872 13.5963 6.1875 12.0672 6.1875C10.5381 6.1875 9.29858 7.41872 9.29858 8.9375C9.29858 10.4563 10.5381 11.6875 12.0672 11.6875Z" stroke="#828282" stroke-width="3" stroke-linecap="round" stroke-linejoin="round"/>
<path d="M18.9888 8.9375C18.9888 15.125 12.0672 19.9375 12.0672 19.9375C12.0672 19.9375 5.14563 15.125 5.14563 8.9375C5.14563 7.11414 5.87487 5.36545 7.17292 4.07614C8.47097 2.78683 10.2315 2.0625 12.0672 2.0625C13.9029 2.0625 15.6635 2.78683 16.9615 4.07614C18.2596 5.36545 18.9888 7.11414 18.9888 8.9375V8.9375Z" stroke="#828282" stroke-width="2" stroke-linecap="round" stroke-linejoin="round"/>
</svg>
