<svg width="24" height="22" viewBox="0 0 24 22" fill="none" xmlns="http://www.w3.org/2000/svg">
<path fill-rule="evenodd" clip-rule="evenodd" d="M15.3127 14.3581C15.4413 14.2302 15.594 14.1288 15.762 14.0596C15.9301 13.9904 16.1102 13.9548 16.2921 13.9548C16.474 13.9548 16.6542 13.9904 16.8222 14.0596C16.9903 14.1288 17.1429 14.2302 17.2715 14.3581L22.6011 19.6519C22.8608 19.9097 23.0068 20.2595 23.007 20.6242C23.0071 20.989 22.8613 21.3389 22.6018 21.5969C22.3422 21.8549 21.9901 21.9999 21.6229 22C21.2557 22.0002 20.9034 21.8554 20.6437 21.5976L15.3141 16.3037C15.1854 16.176 15.0833 16.0244 15.0136 15.8574C14.944 15.6905 14.9081 15.5116 14.9081 15.3309C14.9081 15.1502 14.944 14.9713 15.0136 14.8043C15.0833 14.6374 15.1854 14.4858 15.3141 14.3581H15.3127Z" fill="white"/>
<path fill-rule="evenodd" clip-rule="evenodd" d="M9.85587 16.5003C10.8557 16.5003 11.8458 16.3047 12.7695 15.9246C13.6932 15.5446 14.5326 14.9875 15.2395 14.2853C15.9465 13.583 16.5074 12.7493 16.89 11.8318C17.2726 10.9142 17.4695 9.93081 17.4695 8.93767C17.4695 7.94453 17.2726 6.96111 16.89 6.04357C16.5074 5.12603 15.9465 4.29233 15.2395 3.59007C14.5326 2.88782 13.6932 2.33076 12.7695 1.9507C11.8458 1.57064 10.8557 1.37503 9.85587 1.37503C7.83661 1.37503 5.90004 2.1718 4.4722 3.59007C3.04436 5.00834 2.24221 6.93193 2.24221 8.93767C2.24221 10.9434 3.04436 12.867 4.4722 14.2853C5.90004 15.7035 7.83661 16.5003 9.85587 16.5003ZM18.8538 8.93767C18.8538 11.3081 17.9058 13.5814 16.2184 15.2576C14.5309 16.9337 12.2423 17.8753 9.85587 17.8753C7.46947 17.8753 5.1808 16.9337 3.49335 15.2576C1.80591 13.5814 0.85791 11.3081 0.85791 8.93767C0.85791 6.56725 1.80591 4.29392 3.49335 2.61778C5.1808 0.941644 7.46947 0 9.85587 0C12.2423 0 14.5309 0.941644 16.2184 2.61778C17.9058 4.29392 18.8538 6.56725 18.8538 8.93767Z" fill="white"/>
</svg>
